<?xml version="1.0" encoding="utf-8" standalone="no"?>
<!DOCTYPE svg PUBLIC "-//W3C//DTD SVG 1.1//EN"
  "http://www.w3.org/Graphics/SVG/1.1/DTD/svg11.dtd">
<svg xmlns:xlink="http://www.w3.org/1999/xlink" width="684pt" height="457.92pt" viewBox="0 0 684 457.92" xmlns="http://www.w3.org/2000/svg" version="1.1">
 <metadata>
  <rdf:RDF xmlns:dc="http://purl.org/dc/elements/1.1/" xmlns:cc="http://creativecommons.org/ns#" xmlns:rdf="http://www.w3.org/1999/02/22-rdf-syntax-ns#">
   <cc:Work>
    <dc:type rdf:resource="http://purl.org/dc/dcmitype/StillImage"/>
    <dc:date>2026-02-16T09:20:56.299224</dc:date>
    <dc:format>image/svg+xml</dc:format>
    <dc:creator>
     <cc:Agent>
      <dc:title>Matplotlib v3.10.0, https://matplotlib.org/</dc:title>
     </cc:Agent>
    </dc:creator>
   </cc:Work>
  </rdf:RDF>
 </metadata>
 <defs>
  <style type="text/css">*{stroke-linejoin: round; stroke-linecap: butt}</style>
 </defs>
 <g id="figure_1">
  <g id="patch_1">
   <path d="M 0 457.92 
L 684 457.92 
L 684 0 
L 0 0 
z
" style="fill: #ffffff"/>
  </g>
  <g id="axes_1">
   <g id="patch_2">
    <path d="M 7.2 450.72 
L 676.8 450.72 
L 676.8 7.2 
L 7.2 7.2 
z
" style="fill: #ffffff"/>
   </g>
   <g id="matplotlib.axis_1">
    <g id="xtick_1">
     <g id="line2d_1">
      <path d="M 105.272727 450.72 
L 105.272727 7.2 
" clip-path="url(#p4ba454502f)" style="fill: none; stroke: #cccccc; stroke-opacity: 0.3; stroke-width: 0.8; stroke-linecap: round"/>
     </g>
    </g>
    <g id="xtick_2">
     <g id="line2d_2">
      <path d="M 240.545455 450.72 
L 240.545455 7.2 
" clip-path="url(#p4ba454502f)" style="fill: none; stroke: #cccccc; stroke-opacity: 0.3; stroke-width: 0.8; stroke-linecap: round"/>
     </g>
    </g>
    <g id="xtick_3">
     <g id="line2d_3">
      <path d="M 375.818182 450.72 
L 375.818182 7.2 
" clip-path="url(#p4ba454502f)" style="fill: none; stroke: #cccccc; stroke-opacity: 0.3; stroke-width: 0.8; stroke-linecap: round"/>
     </g>
    </g>
    <g id="xtick_4">
     <g id="line2d_4">
      <path d="M 511.090909 450.72 
L 511.090909 7.2 
" clip-path="url(#p4ba454502f)" style="fill: none; stroke: #cccccc; stroke-opacity: 0.3; stroke-width: 0.8; stroke-linecap: round"/>
     </g>
    </g>
    <g id="xtick_5">
     <g id="line2d_5">
      <path d="M 646.363636 450.72 
L 646.363636 7.2 
" clip-path="url(#p4ba454502f)" style="fill: none; stroke: #cccccc; stroke-opacity: 0.3; stroke-width: 0.8; stroke-linecap: round"/>
     </g>
    </g>
   </g>
   <g id="matplotlib.axis_2">
    <g id="ytick_1">
     <g id="line2d_6">
      <path d="M 7.2 378.144 
L 676.8 378.144 
" clip-path="url(#p4ba454502f)" style="fill: none; stroke: #cccccc; stroke-opacity: 0.3; stroke-width: 0.8; stroke-linecap: round"/>
     </g>
    </g>
    <g id="ytick_2">
     <g id="line2d_7">
      <path d="M 7.2 297.504 
L 676.8 297.504 
" clip-path="url(#p4ba454502f)" style="fill: none; stroke: #cccccc; stroke-opacity: 0.3; stroke-width: 0.8; stroke-linecap: round"/>
     </g>
    </g>
    <g id="ytick_3">
     <g id="line2d_8">
      <path d="M 7.2 216.864 
L 676.8 216.864 
" clip-path="url(#p4ba454502f)" style="fill: none; stroke: #cccccc; stroke-opacity: 0.3; stroke-width: 0.8; stroke-linecap: round"/>
     </g>
    </g>
    <g id="ytick_4">
     <g id="line2d_9">
      <path d="M 7.2 136.224 
L 676.8 136.224 
" clip-path="url(#p4ba454502f)" style="fill: none; stroke: #cccccc; stroke-opacity: 0.3; stroke-width: 0.8; stroke-linecap: round"/>
     </g>
    </g>
    <g id="ytick_5">
     <g id="line2d_10">
      <path d="M 7.2 55.584 
L 676.8 55.584 
" clip-path="url(#p4ba454502f)" style="fill: none; stroke: #cccccc; stroke-opacity: 0.3; stroke-width: 0.8; stroke-linecap: round"/>
     </g>
    </g>
   </g>
   <g id="line2d_11">
    <path d="M 37.636364 55.584 
L 43.785124 89.184 
L 49.933884 117.614769 
L 56.082645 141.984 
L 62.231405 163.104 
L 68.380165 181.584 
L 74.528926 197.889882 
L 80.677686 212.384 
L 86.826446 225.352421 
L 92.975207 237.024 
L 99.123967 247.584 
L 105.272727 257.184 
L 111.421488 265.949217 
L 117.570248 273.984 
L 123.719008 281.376 
L 129.867769 288.199385 
L 136.016529 294.517333 
L 142.165289 300.384 
L 148.31405 305.846069 
L 154.46281 310.944 
L 160.61157 315.713032 
L 166.760331 320.184 
L 172.909091 324.384 
L 179.057851 328.336941 
L 185.206612 332.064 
L 191.355372 335.584 
L 197.504132 338.91373 
L 203.652893 342.068211 
L 209.801653 345.060923 
L 215.950413 347.904 
L 222.099174 350.60839 
L 228.247934 353.184 
L 234.396694 355.639814 
L 240.545455 357.984 
L 246.694215 360.224 
L 252.842975 362.366609 
L 258.991736 364.418043 
L 265.140496 366.384 
L 271.289256 368.269714 
L 277.438017 370.08 
L 283.586777 371.819294 
L 289.735537 373.491692 
L 295.884298 375.100981 
L 302.033058 376.650667 
L 308.181818 378.144 
L 314.330579 379.584 
L 320.479339 380.973474 
L 326.628099 382.315034 
L 332.77686 383.611119 
L 338.92562 384.864 
L 345.07438 386.075803 
L 351.22314 387.248516 
L 357.371901 388.384 
L 363.520661 389.484 
L 369.669421 390.550154 
L 375.818182 391.584 
L 381.966942 392.586985 
L 388.115702 393.560471 
L 394.264463 394.505739 
L 400.413223 395.424 
L 406.561983 396.316394 
L 412.710744 397.184 
L 418.859504 398.027836 
L 425.008264 398.848865 
L 431.157025 399.648 
L 437.305785 400.426105 
L 443.454545 401.184 
L 449.603306 401.922462 
L 455.752066 402.642228 
L 461.900826 403.344 
L 468.049587 404.028444 
L 474.198347 404.696195 
L 480.347107 405.347855 
L 486.495868 405.984 
L 492.644628 406.605176 
L 498.793388 407.211907 
L 504.942149 407.80469 
L 511.090909 408.384 
L 517.239669 408.950292 
L 523.38843 409.504 
L 529.53719 410.045538 
L 535.68595 410.575304 
L 541.834711 411.093677 
L 547.983471 411.601021 
L 554.132231 412.097684 
L 560.280992 412.584 
L 566.429752 413.060289 
L 572.578512 413.526857 
L 578.727273 413.984 
L 584.876033 414.432 
L 591.024793 414.871129 
L 597.173554 415.301647 
L 603.322314 415.723806 
L 609.471074 416.137846 
L 615.619835 416.544 
L 621.768595 416.942491 
L 627.917355 417.333533 
L 634.066116 417.717333 
L 640.214876 418.094092 
L 646.363636 418.464 
" clip-path="url(#p4ba454502f)" style="fill: none; stroke: #008000; stroke-width: 3; stroke-linecap: round"/>
   </g>
   <g id="line2d_12">
    <path d="M 37.636364 430.56 
L 43.785124 429.953534 
L 49.933884 429.307081 
L 56.082645 428.620641 
L 62.231405 427.894215 
L 68.380165 427.127802 
L 74.528926 426.321402 
L 80.677686 425.475015 
L 86.826446 424.588641 
L 92.975207 423.662281 
L 99.123967 422.695934 
L 105.272727 421.6896 
L 111.421488 420.643279 
L 117.570248 419.556972 
L 123.719008 418.430678 
L 129.867769 417.264397 
L 136.016529 416.058129 
L 142.165289 414.811874 
L 148.31405 413.525633 
L 154.46281 412.199405 
L 160.61157 410.83319 
L 166.760331 409.426988 
L 172.909091 407.9808 
L 179.057851 406.494625 
L 185.206612 404.968463 
L 191.355372 403.402314 
L 197.504132 401.796179 
L 203.652893 400.150056 
L 209.801653 398.463947 
L 215.950413 396.737851 
L 222.099174 394.971769 
L 228.247934 393.165699 
L 234.396694 391.319643 
L 240.545455 389.4336 
L 246.694215 387.50757 
L 252.842975 385.541554 
L 258.991736 383.53555 
L 265.140496 381.48956 
L 271.289256 379.403583 
L 277.438017 377.27762 
L 283.586777 375.111669 
L 289.735537 372.905732 
L 295.884298 370.659808 
L 302.033058 368.373898 
L 308.181818 366.048 
L 314.330579 363.682116 
L 320.479339 361.276245 
L 326.628099 358.830387 
L 332.77686 356.344542 
L 338.92562 353.818711 
L 345.07438 351.252893 
L 351.22314 348.647088 
L 357.371901 346.001296 
L 363.520661 343.315517 
L 369.669421 340.589752 
L 375.818182 337.824 
L 381.966942 335.018261 
L 388.115702 332.172536 
L 394.264463 329.286823 
L 400.413223 326.361124 
L 406.561983 323.395438 
L 412.710744 320.389765 
L 418.859504 317.344106 
L 425.008264 314.25846 
L 431.157025 311.132826 
L 437.305785 307.967207 
L 443.454545 304.7616 
L 449.603306 301.516007 
L 455.752066 298.230426 
L 461.900826 294.90486 
L 468.049587 291.539306 
L 474.198347 288.133765 
L 480.347107 284.688238 
L 486.495868 281.202724 
L 492.644628 277.677223 
L 498.793388 274.111736 
L 504.942149 270.506261 
L 511.090909 266.8608 
L 517.239669 263.175352 
L 523.38843 259.449917 
L 529.53719 255.684496 
L 535.68595 251.879088 
L 541.834711 248.033693 
L 547.983471 244.148311 
L 554.132231 240.222942 
L 560.280992 236.257587 
L 566.429752 232.252245 
L 572.578512 228.206916 
L 578.727273 224.1216 
L 584.876033 219.996298 
L 591.024793 215.831008 
L 597.173554 211.625732 
L 603.322314 207.380469 
L 609.471074 203.09522 
L 615.619835 198.769983 
L 621.768595 194.40476 
L 627.917355 189.99955 
L 634.066116 185.554354 
L 640.214876 181.06917 
L 646.363636 176.544 
" clip-path="url(#p4ba454502f)" style="fill: none; stroke: #0000ff; stroke-width: 3; stroke-linecap: round"/>
   </g>
   <g id="line2d_13">
    <path d="M 37.636364 27.36 
L 43.785124 60.353534 
L 49.933884 88.13785 
L 56.082645 111.820641 
L 62.231405 132.214215 
L 68.380165 149.927802 
L 74.528926 165.427284 
L 80.677686 179.075015 
L 86.826446 191.157062 
L 92.975207 201.902281 
L 99.123967 211.495934 
L 105.272727 220.0896 
L 111.421488 227.808497 
L 117.570248 234.756972 
L 123.719008 241.022678 
L 129.867769 246.679781 
L 136.016529 251.791462 
L 142.165289 256.411874 
L 148.31405 260.587702 
L 154.46281 264.359405 
L 160.61157 267.762222 
L 166.760331 270.826988 
L 172.909091 273.5808 
L 179.057851 276.047566 
L 185.206612 278.248463 
L 191.355372 280.202314 
L 197.504132 281.925908 
L 203.652893 283.434267 
L 209.801653 284.74087 
L 215.950413 285.857851 
L 222.099174 286.796159 
L 228.247934 287.565699 
L 234.396694 288.175457 
L 240.545455 288.6336 
L 246.694215 288.94757 
L 252.842975 289.124162 
L 258.991736 289.169593 
L 265.140496 289.08956 
L 271.289256 288.889298 
L 277.438017 288.57362 
L 283.586777 288.146964 
L 289.735537 287.613425 
L 295.884298 286.976789 
L 302.033058 286.240564 
L 308.181818 285.408 
L 314.330579 284.482116 
L 320.479339 283.465718 
L 326.628099 282.361421 
L 332.77686 281.171661 
L 338.92562 279.898711 
L 345.07438 278.544696 
L 351.22314 277.111604 
L 357.371901 275.601296 
L 363.520661 274.015517 
L 369.669421 272.355906 
L 375.818182 270.624 
L 381.966942 268.821246 
L 388.115702 266.949006 
L 394.264463 265.008562 
L 400.413223 263.001124 
L 406.561983 260.927832 
L 412.710744 258.789765 
L 418.859504 256.587941 
L 425.008264 254.323324 
L 431.157025 251.996826 
L 437.305785 249.609312 
L 443.454545 247.1616 
L 449.603306 244.654468 
L 455.752066 242.088654 
L 461.900826 239.46486 
L 468.049587 236.78375 
L 474.198347 234.04596 
L 480.347107 231.252093 
L 486.495868 228.402724 
L 492.644628 225.4984 
L 498.793388 222.539643 
L 504.942149 219.526951 
L 511.090909 216.4608 
L 517.239669 213.341644 
L 523.38843 210.169917 
L 529.53719 206.946034 
L 535.68595 203.670392 
L 541.834711 200.34337 
L 547.983471 196.965332 
L 554.132231 193.536626 
L 560.280992 190.057587 
L 566.429752 186.528533 
L 572.578512 182.949773 
L 578.727273 179.3216 
L 584.876033 175.644298 
L 591.024793 171.918137 
L 597.173554 168.143379 
L 603.322314 164.320275 
L 609.471074 160.449066 
L 615.619835 156.529983 
L 621.768595 152.563251 
L 627.917355 148.549083 
L 634.066116 144.487687 
L 640.214876 140.379262 
L 646.363636 136.224 
" clip-path="url(#p4ba454502f)" style="fill: none; stroke: #ff0000; stroke-width: 3; stroke-linecap: round"/>
   </g>
   <g id="patch_3">
    <path d="M 7.2 450.72 
L 7.2 7.2 
" style="fill: none; stroke: #cccccc; stroke-width: 0.8; stroke-linejoin: miter; stroke-linecap: square"/>
   </g>
   <g id="patch_4">
    <path d="M 676.8 450.72 
L 676.8 7.2 
" style="fill: none; stroke: #cccccc; stroke-width: 0.8; stroke-linejoin: miter; stroke-linecap: square"/>
   </g>
   <g id="patch_5">
    <path d="M 7.2 450.72 
L 676.8 450.72 
" style="fill: none; stroke: #cccccc; stroke-width: 0.8; stroke-linejoin: miter; stroke-linecap: square"/>
   </g>
   <g id="patch_6">
    <path d="M 7.2 7.2 
L 676.8 7.2 
" style="fill: none; stroke: #cccccc; stroke-width: 0.8; stroke-linejoin: miter; stroke-linecap: square"/>
   </g>
   <g id="legend_1">
    <g id="patch_7">
     <path d="M 617.8 57.635937 
L 669.8 57.635937 
Q 671.8 57.635937 671.8 55.635937 
L 671.8 14.2 
Q 671.8 12.2 669.8 12.2 
L 617.8 12.2 
Q 615.8 12.2 615.8 14.2 
L 615.8 55.635937 
Q 615.8 57.635937 617.8 57.635937 
z
" style="fill: #ffffff; opacity: 0.8; stroke: #cccccc; stroke-linejoin: miter"/>
    </g>
    <g id="line2d_14">
     <path d="M 619.8 19.857812 
L 629.8 19.857812 
L 639.8 19.857812 
" style="fill: none; stroke: #008000; stroke-width: 3; stroke-linecap: round"/>
    </g>
    <g id="text_1">
     <!-- AFC -->
     <g style="fill: #262626" transform="translate(647.8 23.357812) scale(0.1 -0.1)">
      <defs>
       <path id="ArialMT-41" d="M -9 0 
L 1750 4581 
L 2403 4581 
L 4278 0 
L 3588 0 
L 3053 1388 
L 1138 1388 
L 634 0 
L -9 0 
z
M 1313 1881 
L 2866 1881 
L 2388 3150 
Q 2169 3728 2063 4100 
Q 1975 3659 1816 3225 
L 1313 1881 
z
" transform="scale(0.015625)"/>
       <path id="ArialMT-46" d="M 525 0 
L 525 4581 
L 3616 4581 
L 3616 4041 
L 1131 4041 
L 1131 2622 
L 3281 2622 
L 3281 2081 
L 1131 2081 
L 1131 0 
L 525 0 
z
" transform="scale(0.015625)"/>
       <path id="ArialMT-43" d="M 3763 1606 
L 4369 1453 
Q 4178 706 3683 314 
Q 3188 -78 2472 -78 
Q 1731 -78 1267 223 
Q 803 525 561 1097 
Q 319 1669 319 2325 
Q 319 3041 592 3573 
Q 866 4106 1370 4382 
Q 1875 4659 2481 4659 
Q 3169 4659 3637 4309 
Q 4106 3959 4291 3325 
L 3694 3184 
Q 3534 3684 3231 3912 
Q 2928 4141 2469 4141 
Q 1941 4141 1586 3887 
Q 1231 3634 1087 3207 
Q 944 2781 944 2328 
Q 944 1744 1114 1308 
Q 1284 872 1643 656 
Q 2003 441 2422 441 
Q 2931 441 3284 734 
Q 3638 1028 3763 1606 
z
" transform="scale(0.015625)"/>
      </defs>
      <use xlink:href="#ArialMT-41"/>
      <use xlink:href="#ArialMT-46" transform="translate(66.699219 0)"/>
      <use xlink:href="#ArialMT-43" transform="translate(127.783203 0)"/>
     </g>
    </g>
    <g id="line2d_15">
     <path d="M 619.8 34.003125 
L 629.8 34.003125 
L 639.8 34.003125 
" style="fill: none; stroke: #0000ff; stroke-width: 3; stroke-linecap: round"/>
    </g>
    <g id="text_2">
     <!-- AVC -->
     <g style="fill: #262626" transform="translate(647.8 37.503125) scale(0.1 -0.1)">
      <defs>
       <path id="ArialMT-56" d="M 1803 0 
L 28 4581 
L 684 4581 
L 1875 1253 
Q 2019 853 2116 503 
Q 2222 878 2363 1253 
L 3600 4581 
L 4219 4581 
L 2425 0 
L 1803 0 
z
" transform="scale(0.015625)"/>
      </defs>
      <use xlink:href="#ArialMT-41"/>
      <use xlink:href="#ArialMT-56" transform="translate(59.324219 0)"/>
      <use xlink:href="#ArialMT-43" transform="translate(126.023438 0)"/>
     </g>
    </g>
    <g id="line2d_16">
     <path d="M 619.8 48.148437 
L 629.8 48.148437 
L 639.8 48.148437 
" style="fill: none; stroke: #ff0000; stroke-width: 3; stroke-linecap: round"/>
    </g>
    <g id="text_3">
     <!-- ATC -->
     <g style="fill: #262626" transform="translate(647.8 51.648437) scale(0.1 -0.1)">
      <defs>
       <path id="ArialMT-54" d="M 1659 0 
L 1659 4041 
L 150 4041 
L 150 4581 
L 3781 4581 
L 3781 4041 
L 2266 4041 
L 2266 0 
L 1659 0 
z
" transform="scale(0.015625)"/>
      </defs>
      <use xlink:href="#ArialMT-41"/>
      <use xlink:href="#ArialMT-54" transform="translate(59.324219 0)"/>
      <use xlink:href="#ArialMT-43" transform="translate(120.408203 0)"/>
     </g>
    </g>
   </g>
  </g>
 </g>
 <defs>
  <clipPath id="p4ba454502f">
   <rect x="7.2" y="7.2" width="669.6" height="443.52"/>
  </clipPath>
 </defs>
</svg>
